{
	"asset":{
		"version":"2.0",
		"generator":"Created using the official Cinema 4D glTF Exporter 1.000x284978"
	},
	"scenes":[{
		"nodes":[0,
		1,
		2,
		3,
		4,
		5,
		6,
		7,
		8,
		9,
		10,
		11,
		12,
		13,
		14]
	}],
	"nodes":[{
		"name":"western-house-gunsmith_T5",
		"mesh":0,
		"translation":[-1613.5714111328126,
		261.2347412109375,
		-2085.883544921875],
		"rotation":[0.0,
		-0.9593375325202942,
		0.0,
		0.28226137161254885],
		"scale":[1.0,
		1.0,
		0.9999999403953552]
	},
	{
		"name":"western-house-gunsmith_T4",
		"mesh":1,
		"translation":[283.1000671386719,
		261.2347412109375,
		-1664.29296875],
		"rotation":[0.0,
		-0.9593375325202942,
		0.0,
		0.28226137161254885],
		"scale":[1.0,
		1.0,
		0.9999999403953552]
	},
	{
		"name":"western-house-gunsmith_T3",
		"mesh":2,
		"translation":[-1801.614990234375,
		261.2347412109375,
		-228.65074157714845],
		"rotation":[0.0,
		-0.9593375325202942,
		0.0,
		0.28226137161254885],
		"scale":[1.0,
		1.0,
		0.9999999403953552]
	},
	{
		"name":"western-house-gunsmith_T2",
		"mesh":3,
		"translation":[2144.74755859375,
		261.2347412109375,
		-2153.05908203125],
		"rotation":[0.0,
		-0.9537169337272644,
		0.0,
		-0.30070579051971438],
		"scale":[1.0,
		1.0,
		0.9999999403953552]
	},
	{
		"name":"western-house-gunsmith_T1",
		"mesh":4,
		"translation":[2677.90380859375,
		261.2347412109375,
		-945.2626342773438],
		"rotation":[0.0,
		-0.9537169337272644,
		0.0,
		-0.30070579051971438],
		"scale":[1.0,
		1.0,
		0.9999999403953552]
	},
	{
		"name":"platform5",
		"mesh":5,
		"translation":[-1802.71533203125,
		118.81661987304688,
		-241.8497772216797],
		"rotation":[0.0,
		0.0,
		0.0,
		-1.0],
		"scale":[1.0,
		1.0,
		1.0]
	},
	{
		"name":"platform4",
		"mesh":6,
		"translation":[-1622.1063232421876,
		118.81661987304688,
		-2109.333251953125],
		"rotation":[0.0,
		0.0,
		0.0,
		-1.0],
		"scale":[1.0,
		1.0,
		1.0]
	},
	{
		"name":"platform3",
		"mesh":7,
		"translation":[2139.818115234375,
		118.81661987304688,
		-2148.15234375],
		"rotation":[0.0,
		0.0,
		0.0,
		-1.0],
		"scale":[1.0,
		1.0,
		1.0]
	},
	{
		"name":"platform2",
		"mesh":8,
		"translation":[286.73779296875,
		118.81661987304688,
		-1661.55908203125],
		"rotation":[0.0,
		0.0,
		0.0,
		-1.0],
		"scale":[1.0,
		1.0,
		1.0]
	},
	{
		"name":"platform1",
		"mesh":9,
		"translation":[2668.67626953125,
		118.81661987304688,
		-934.5006713867188],
		"rotation":[0.0,
		0.0,
		0.0,
		-1.0],
		"scale":[1.0,
		1.0,
		1.0]
	},
	{
		"name":"terrain",
		"mesh":10
	},
	{
		"name":"mountains_T4",
		"mesh":11,
		"translation":[3032.85107421875,
		89.6507339477539,
		-1953.8184814453126],
		"rotation":[0.0,
		-0.44523361325263979,
		0.0,
		0.895414412021637],
		"scale":[1.0,
		1.0,
		1.0]
	},
	{
		"name":"mountains_T3",
		"mesh":12,
		"translation":[-1900.12060546875,
		26.92494773864746,
		1148.3040771484376],
		"rotation":[0.0,
		-0.8052917718887329,
		0.0,
		-0.5928786993026733],
		"scale":[1.0,
		1.0,
		1.0]
	},
	{
		"name":"mountains_T2",
		"mesh":13,
		"translation":[-563.6187133789063,
		26.92494773864746,
		-2210.652587890625],
		"rotation":[0.0,
		-0.44661906361579897,
		0.0,
		-0.8947241902351379],
		"scale":[1.0,
		1.0,
		1.0]
	},
	{
		"name":"mountains_T1",
		"mesh":14,
		"translation":[1309.8243408203126,
		114.45968627929688,
		-1770.040283203125],
		"rotation":[0.0,
		0.0,
		0.0,
		-1.0],
		"scale":[1.0,
		1.0,
		1.0]
	}],
	"meshes":[{
		"name":"western-house-gunsmith_T5",
		"primitives":[{
			"attributes":{
				"POSITION":1,
				"TEXCOORD_0":2
			},
			"indices":0,
			"material":0
		}]
	},
	{
		"name":"western-house-gunsmith_T4",
		"primitives":[{
			"attributes":{
				"POSITION":4,
				"TEXCOORD_0":5
			},
			"indices":3,
			"material":0
		}]
	},
	{
		"name":"western-house-gunsmith_T3",
		"primitives":[{
			"attributes":{
				"POSITION":7,
				"TEXCOORD_0":8
			},
			"indices":6,
			"material":0
		}]
	},
	{
		"name":"western-house-gunsmith_T2",
		"primitives":[{
			"attributes":{
				"POSITION":10,
				"TEXCOORD_0":11
			},
			"indices":9,
			"material":0
		}]
	},
	{
		"name":"western-house-gunsmith_T1",
		"primitives":[{
			"attributes":{
				"POSITION":13,
				"TEXCOORD_0":14
			},
			"indices":12,
			"material":0
		}]
	},
	{
		"name":"platform5",
		"primitives":[{
			"attributes":{
				"POSITION":16,
				"TEXCOORD_0":17
			},
			"indices":15,
			"material":1
		}]
	},
	{
		"name":"platform4",
		"primitives":[{
			"attributes":{
				"POSITION":19,
				"TEXCOORD_0":20
			},
			"indices":18,
			"material":1
		}]
	},
	{
		"name":"platform3",
		"primitives":[{
			"attributes":{
				"POSITION":22,
				"TEXCOORD_0":23
			},
			"indices":21,
			"material":1
		}]
	},
	{
		"name":"platform2",
		"primitives":[{
			"attributes":{
				"POSITION":25,
				"TEXCOORD_0":26
			},
			"indices":24,
			"material":1
		}]
	},
	{
		"name":"platform1",
		"primitives":[{
			"attributes":{
				"POSITION":28,
				"TEXCOORD_0":29
			},
			"indices":27,
			"material":1
		}]
	},
	{
		"name":"terrain",
		"primitives":[{
			"attributes":{
				"POSITION":31,
				"TEXCOORD_0":32
			},
			"indices":30,
			"material":2
		}]
	},
	{
		"name":"mountains_T4",
		"primitives":[{
			"attributes":{
				"POSITION":34,
				"TEXCOORD_0":35
			},
			"indices":33,
			"material":0
		}]
	},
	{
		"name":"mountains_T3",
		"primitives":[{
			"attributes":{
				"POSITION":37,
				"TEXCOORD_0":38
			},
			"indices":36,
			"material":0
		}]
	},
	{
		"name":"mountains_T2",
		"primitives":[{
			"attributes":{
				"POSITION":40,
				"TEXCOORD_0":41
			},
			"indices":39,
			"material":0
		}]
	},
	{
		"name":"mountains_T1",
		"primitives":[{
			"attributes":{
				"POSITION":43,
				"TEXCOORD_0":44
			},
			"indices":42,
			"material":0
		}]
	}],
	"accessors":[{
		"bufferView":0,
		"type":"SCALAR",
		"componentType":5123,
		"count":2232,
		"byteOffset":0,
		"min":[0],
		"max":[1069]
	},
	{
		"bufferView":1,
		"type":"VEC3",
		"componentType":5126,
		"count":1070,
		"byteOffset":0,
		"min":[-158.04498291015626,
		0.0475216768682003,
		-281.0257873535156],
		"max":[158.04498291015626,
		318.3056335449219,
		205.0361785888672]
	},
	{
		"bufferView":1,
		"type":"VEC2",
		"componentType":5126,
		"count":1070,
		"byteOffset":12,
		"min":[0.03568798676133156,
		-0.9609313011169434],
		"max":[0.4780798554420471,
		-0.40249156951904299]
	},
	{
		"bufferView":2,
		"type":"SCALAR",
		"componentType":5123,
		"count":2232,
		"byteOffset":0,
		"min":[0],
		"max":[1069]
	},
	{
		"bufferView":3,
		"type":"VEC3",
		"componentType":5126,
		"count":1070,
		"byteOffset":0,
		"min":[-158.04498291015626,
		0.0475216768682003,
		-281.0257873535156],
		"max":[158.04498291015626,
		318.3056335449219,
		205.0361785888672]
	},
	{
		"bufferView":3,
		"type":"VEC2",
		"componentType":5126,
		"count":1070,
		"byteOffset":12,
		"min":[0.03568798676133156,
		-0.9609313011169434],
		"max":[0.4780798554420471,
		-0.40249156951904299]
	},
	{
		"bufferView":4,
		"type":"SCALAR",
		"componentType":5123,
		"count":2232,
		"byteOffset":0,
		"min":[0],
		"max":[1069]
	},
	{
		"bufferView":5,
		"type":"VEC3",
		"componentType":5126,
		"count":1070,
		"byteOffset":0,
		"min":[-158.04498291015626,
		0.0475216768682003,
		-281.0257873535156],
		"max":[158.04498291015626,
		318.3056335449219,
		205.0361785888672]
	},
	{
		"bufferView":5,
		"type":"VEC2",
		"componentType":5126,
		"count":1070,
		"byteOffset":12,
		"min":[0.03568798676133156,
		-0.9609313011169434],
		"max":[0.4780798554420471,
		-0.40249156951904299]
	},
	{
		"bufferView":6,
		"type":"SCALAR",
		"componentType":5123,
		"count":2232,
		"byteOffset":0,
		"min":[0],
		"max":[1069]
	},
	{
		"bufferView":7,
		"type":"VEC3",
		"componentType":5126,
		"count":1070,
		"byteOffset":0,
		"min":[-158.04498291015626,
		0.0475216768682003,
		-281.0257873535156],
		"max":[158.04498291015626,
		318.3056335449219,
		205.0361785888672]
	},
	{
		"bufferView":7,
		"type":"VEC2",
		"componentType":5126,
		"count":1070,
		"byteOffset":12,
		"min":[0.03568798676133156,
		-0.9609313011169434],
		"max":[0.4780798554420471,
		-0.40249156951904299]
	},
	{
		"bufferView":8,
		"type":"SCALAR",
		"componentType":5123,
		"count":2232,
		"byteOffset":0,
		"min":[0],
		"max":[1069]
	},
	{
		"bufferView":9,
		"type":"VEC3",
		"componentType":5126,
		"count":1070,
		"byteOffset":0,
		"min":[-158.04498291015626,
		0.0475216768682003,
		-281.0257873535156],
		"max":[158.04498291015626,
		318.3056335449219,
		205.0361785888672]
	},
	{
		"bufferView":9,
		"type":"VEC2",
		"componentType":5126,
		"count":1070,
		"byteOffset":12,
		"min":[0.03568798676133156,
		-0.9609313011169434],
		"max":[0.4780798554420471,
		-0.40249156951904299]
	},
	{
		"bufferView":10,
		"type":"SCALAR",
		"componentType":5123,
		"count":1650,
		"byteOffset":0,
		"min":[0],
		"max":[337]
	},
	{
		"bufferView":11,
		"type":"VEC3",
		"componentType":5126,
		"count":338,
		"byteOffset":0,
		"min":[-355.7395324707031,
		-118.09680938720703,
		-357.8594055175781],
		"max":[358.56695556640627,
		141.87681579589845,
		357.8594055175781]
	},
	{
		"bufferView":11,
		"type":"VEC2",
		"componentType":5126,
		"count":338,
		"byteOffset":12,
		"min":[0.0,
		0.0],
		"max":[1.0,
		1.0]
	},
	{
		"bufferView":12,
		"type":"SCALAR",
		"componentType":5123,
		"count":1650,
		"byteOffset":0,
		"min":[0],
		"max":[337]
	},
	{
		"bufferView":13,
		"type":"VEC3",
		"componentType":5126,
		"count":338,
		"byteOffset":0,
		"min":[-355.7395324707031,
		-118.09680938720703,
		-357.8594055175781],
		"max":[358.56695556640627,
		141.87681579589845,
		357.8594055175781]
	},
	{
		"bufferView":13,
		"type":"VEC2",
		"componentType":5126,
		"count":338,
		"byteOffset":12,
		"min":[0.0,
		0.0],
		"max":[1.0,
		1.0]
	},
	{
		"bufferView":14,
		"type":"SCALAR",
		"componentType":5123,
		"count":1650,
		"byteOffset":0,
		"min":[0],
		"max":[337]
	},
	{
		"bufferView":15,
		"type":"VEC3",
		"componentType":5126,
		"count":338,
		"byteOffset":0,
		"min":[-355.7395324707031,
		-118.09680938720703,
		-357.8594055175781],
		"max":[358.56695556640627,
		141.87681579589845,
		357.8594055175781]
	},
	{
		"bufferView":15,
		"type":"VEC2",
		"componentType":5126,
		"count":338,
		"byteOffset":12,
		"min":[0.0,
		0.0],
		"max":[1.0,
		1.0]
	},
	{
		"bufferView":16,
		"type":"SCALAR",
		"componentType":5123,
		"count":1650,
		"byteOffset":0,
		"min":[0],
		"max":[337]
	},
	{
		"bufferView":17,
		"type":"VEC3",
		"componentType":5126,
		"count":338,
		"byteOffset":0,
		"min":[-355.7395324707031,
		-118.09680938720703,
		-357.8594055175781],
		"max":[358.56695556640627,
		141.87681579589845,
		357.8594055175781]
	},
	{
		"bufferView":17,
		"type":"VEC2",
		"componentType":5126,
		"count":338,
		"byteOffset":12,
		"min":[0.0,
		0.0],
		"max":[1.0,
		1.0]
	},
	{
		"bufferView":18,
		"type":"SCALAR",
		"componentType":5123,
		"count":1650,
		"byteOffset":0,
		"min":[0],
		"max":[337]
	},
	{
		"bufferView":19,
		"type":"VEC3",
		"componentType":5126,
		"count":338,
		"byteOffset":0,
		"min":[-355.7395324707031,
		-118.09680938720703,
		-357.8594055175781],
		"max":[358.56695556640627,
		141.87681579589845,
		357.8594055175781]
	},
	{
		"bufferView":19,
		"type":"VEC2",
		"componentType":5126,
		"count":338,
		"byteOffset":12,
		"min":[0.0,
		0.0],
		"max":[1.0,
		1.0]
	},
	{
		"bufferView":20,
		"type":"SCALAR",
		"componentType":5123,
		"count":2997,
		"byteOffset":0,
		"min":[0],
		"max":[516]
	},
	{
		"bufferView":21,
		"type":"VEC3",
		"componentType":5126,
		"count":517,
		"byteOffset":0,
		"min":[-2407.96728515625,
		-306.9236755371094,
		-2997.072021484375],
		"max":[3593.39208984375,
		247.1764678955078,
		3005.634521484375]
	},
	{
		"bufferView":21,
		"type":"VEC2",
		"componentType":5126,
		"count":517,
		"byteOffset":12,
		"min":[0.0003255211340729147,
		0.0003255195915699005],
		"max":[0.9993498921394348,
		0.9958417415618897]
	},
	{
		"bufferView":22,
		"type":"SCALAR",
		"componentType":5123,
		"count":2385,
		"byteOffset":0,
		"min":[0],
		"max":[724]
	},
	{
		"bufferView":23,
		"type":"VEC3",
		"componentType":5126,
		"count":725,
		"byteOffset":0,
		"min":[-569.1575317382813,
		-0.000027662374122883194,
		-431.09234619140627],
		"max":[588.2750854492188,
		273.0151062011719,
		389.9944152832031]
	},
	{
		"bufferView":23,
		"type":"VEC2",
		"componentType":5126,
		"count":725,
		"byteOffset":12,
		"min":[0.25285518169403078,
		-0.8670254945755005],
		"max":[0.8679540157318115,
		-0.5106676816940308]
	},
	{
		"bufferView":24,
		"type":"SCALAR",
		"componentType":5123,
		"count":2385,
		"byteOffset":0,
		"min":[0],
		"max":[724]
	},
	{
		"bufferView":25,
		"type":"VEC3",
		"componentType":5126,
		"count":725,
		"byteOffset":0,
		"min":[-569.1575317382813,
		-0.000027662374122883194,
		-431.09234619140627],
		"max":[588.2750854492188,
		273.0151062011719,
		389.9944152832031]
	},
	{
		"bufferView":25,
		"type":"VEC2",
		"componentType":5126,
		"count":725,
		"byteOffset":12,
		"min":[0.25285518169403078,
		-0.8670254945755005],
		"max":[0.8679540157318115,
		-0.5106676816940308]
	},
	{
		"bufferView":26,
		"type":"SCALAR",
		"componentType":5123,
		"count":2385,
		"byteOffset":0,
		"min":[0],
		"max":[724]
	},
	{
		"bufferView":27,
		"type":"VEC3",
		"componentType":5126,
		"count":725,
		"byteOffset":0,
		"min":[-569.1575317382813,
		-0.000027662374122883194,
		-431.09234619140627],
		"max":[588.2750854492188,
		273.0151062011719,
		389.9944152832031]
	},
	{
		"bufferView":27,
		"type":"VEC2",
		"componentType":5126,
		"count":725,
		"byteOffset":12,
		"min":[0.25285518169403078,
		-0.8670254945755005],
		"max":[0.8679540157318115,
		-0.5106676816940308]
	},
	{
		"bufferView":28,
		"type":"SCALAR",
		"componentType":5123,
		"count":2385,
		"byteOffset":0,
		"min":[0],
		"max":[724]
	},
	{
		"bufferView":29,
		"type":"VEC3",
		"componentType":5126,
		"count":725,
		"byteOffset":0,
		"min":[-569.1575317382813,
		-0.000027662374122883194,
		-431.09234619140627],
		"max":[588.2750854492188,
		273.0151062011719,
		389.9944152832031]
	},
	{
		"bufferView":29,
		"type":"VEC2",
		"componentType":5126,
		"count":725,
		"byteOffset":12,
		"min":[0.25285518169403078,
		-0.8670254945755005],
		"max":[0.8679540157318115,
		-0.5106676816940308]
	}],
	"bufferViews":[{
		"buffer":0,
		"byteOffset":0,
		"byteLength":4464,
		"target":34963
	},
	{
		"buffer":0,
		"byteOffset":4464,
		"byteLength":21400,
		"target":34962,
		"byteStride":20
	},
	{
		"buffer":1,
		"byteOffset":0,
		"byteLength":4464,
		"target":34963
	},
	{
		"buffer":1,
		"byteOffset":4464,
		"byteLength":21400,
		"target":34962,
		"byteStride":20
	},
	{
		"buffer":2,
		"byteOffset":0,
		"byteLength":4464,
		"target":34963
	},
	{
		"buffer":2,
		"byteOffset":4464,
		"byteLength":21400,
		"target":34962,
		"byteStride":20
	},
	{
		"buffer":3,
		"byteOffset":0,
		"byteLength":4464,
		"target":34963
	},
	{
		"buffer":3,
		"byteOffset":4464,
		"byteLength":21400,
		"target":34962,
		"byteStride":20
	},
	{
		"buffer":4,
		"byteOffset":0,
		"byteLength":4464,
		"target":34963
	},
	{
		"buffer":4,
		"byteOffset":4464,
		"byteLength":21400,
		"target":34962,
		"byteStride":20
	},
	{
		"buffer":5,
		"byteOffset":0,
		"byteLength":3300,
		"target":34963
	},
	{
		"buffer":5,
		"byteOffset":3300,
		"byteLength":6760,
		"target":34962,
		"byteStride":20
	},
	{
		"buffer":6,
		"byteOffset":0,
		"byteLength":3300,
		"target":34963
	},
	{
		"buffer":6,
		"byteOffset":3300,
		"byteLength":6760,
		"target":34962,
		"byteStride":20
	},
	{
		"buffer":7,
		"byteOffset":0,
		"byteLength":3300,
		"target":34963
	},
	{
		"buffer":7,
		"byteOffset":3300,
		"byteLength":6760,
		"target":34962,
		"byteStride":20
	},
	{
		"buffer":8,
		"byteOffset":0,
		"byteLength":3300,
		"target":34963
	},
	{
		"buffer":8,
		"byteOffset":3300,
		"byteLength":6760,
		"target":34962,
		"byteStride":20
	},
	{
		"buffer":9,
		"byteOffset":0,
		"byteLength":3300,
		"target":34963
	},
	{
		"buffer":9,
		"byteOffset":3300,
		"byteLength":6760,
		"target":34962,
		"byteStride":20
	},
	{
		"buffer":10,
		"byteOffset":0,
		"byteLength":5994,
		"target":34963
	},
	{
		"buffer":10,
		"byteOffset":5996,
		"byteLength":10340,
		"target":34962,
		"byteStride":20
	},
	{
		"buffer":11,
		"byteOffset":0,
		"byteLength":4770,
		"target":34963
	},
	{
		"buffer":11,
		"byteOffset":4772,
		"byteLength":14500,
		"target":34962,
		"byteStride":20
	},
	{
		"buffer":12,
		"byteOffset":0,
		"byteLength":4770,
		"target":34963
	},
	{
		"buffer":12,
		"byteOffset":4772,
		"byteLength":14500,
		"target":34962,
		"byteStride":20
	},
	{
		"buffer":13,
		"byteOffset":0,
		"byteLength":4770,
		"target":34963
	},
	{
		"buffer":13,
		"byteOffset":4772,
		"byteLength":14500,
		"target":34962,
		"byteStride":20
	},
	{
		"buffer":14,
		"byteOffset":0,
		"byteLength":4770,
		"target":34963
	},
	{
		"buffer":14,
		"byteOffset":4772,
		"byteLength":14500,
		"target":34962,
		"byteStride":20
	}],
	"buffers":[{
		"uri":"data:application/octet-stream;base64,",
		"byteLength":25864
	},
	{
		"uri":"data:application/octet-stream;base64,",
		"byteLength":25864
	},
	{
		"uri":"data:application/octet-stream;base64,",
		"byteLength":25864
	},
	{
		"uri":"data:application/octet-stream;base64,",
		"byteLength":25864
	},
	{
		"uri":"data:application/octet-stream;base64,",
		"byteLength":25864
	},
	{
		"uri":"data:application/octet-stream;base64,",
		"byteLength":10060
	},
	{
		"uri":"data:application/octet-stream;base64,",
		"byteLength":10060
	},
	{
		"uri":"data:application/octet-stream;base64,",
		"byteLength":10060
	},
	{
		"uri":"data:application/octet-stream;base64,",
		"byteLength":10060
	},
	{
		"uri":"data:application/octet-stream;base64,",
		"byteLength":10060
	},
	{
		"uri":"data:application/octet-stream;base64,",
		"byteLength":16336
	},
	{
		"uri":"data:application/octet-stream;base64,",
		"byteLength":19272
	},
	{
		"uri":"data:application/octet-stream;base64,",
		"byteLength":19272
	},
	{
		"uri":"data:application/octet-stream;base64,",
		"byteLength":19272
	},
	{
		"uri":"data:application/octet-stream;base64,",
		"byteLength":19272
	}],
	"images":[{
		"uri":"data:image/png;base64,"
	},
	{
		"uri":"data:image/png;base64,"
	}],
	"samplers":[{
		"magFilter":9729,
		"minFilter":9729,
		"wrapS":10497,
		"wrapT":10497
	},
	{
		"magFilter":9729,
		"minFilter":9729,
		"wrapS":10497,
		"wrapT":10497
	}],
	"textures":[{
		"sampler":0,
		"source":0
	},
	{
		"sampler":1,
		"source":1
	}],
	"materials":[{
		"pbrMetallicRoughness":{
			"baseColorTexture":{
				"index":0
			},
			"baseColorFactor":[1.0,
			1.0,
			1.0,
			1.0],
			"metallicFactor":1.0,
			"roughnessFactor":1.0
		},
		"emissiveFactor":[0.0,
		0.0,
		0.0],
		"alphaMode":"OPAQUE",
		"name":"LOW-POLY-COLORS",
		"doubleSided":false
	},
	{
		"pbrMetallicRoughness":{
			"baseColorFactor":[0.71,
			0.71,
			0.6602999999999999,
			1.0],
			"metallicFactor":1.0,
			"roughnessFactor":1.0
		},
		"emissiveFactor":[0.0,
		0.0,
		0.0],
		"alphaMode":"OPAQUE",
		"name":"BLACK02",
		"doubleSided":false
	},
	{
		"pbrMetallicRoughness":{
			"baseColorTexture":{
				"index":1
			},
			"baseColorFactor":[1.0,
			1.0,
			1.0,
			1.0],
			"metallicFactor":1.0,
			"roughnessFactor":1.0
		},
		"emissiveFactor":[0.0,
		0.0,
		0.0],
		"alphaMode":"OPAQUE",
		"name":"",
		"doubleSided":false
	}]
}